<?xml version="1.0" standalone="no"?>
<!DOCTYPE svg PUBLIC "-//W3C//DTD SVG 20010904//EN"
 "http://www.w3.org/TR/2001/REC-SVG-20010904/DTD/svg10.dtd">
<svg version="1.0" xmlns="http://www.w3.org/2000/svg"
 width="500.000000pt" height="500.000000pt" viewBox="0 0 500.000000 500.000000"
 preserveAspectRatio="xMidYMid meet">
<metadata>
Created by potrace 1.14, written by Peter Selinger 2001-2017
</metadata>
<g transform="translate(0.000000,500.000000) scale(0.100000,-0.100000)"
fill="#000000" stroke="none">
<path d="M1660 4835 l0 -165 -340 0 -340 0 0 -160 0 -160 -160 0 -160 0 0
-175 0 -175 -165 0 -165 0 0 -330 0 -330 -165 0 -165 0 0 -830 0 -830 165 0
165 0 0 -175 0 -175 165 0 165 0 0 -325 0 -325 160 0 160 0 0 -165 0 -165 175
0 175 0 0 -175 0 -175 1160 0 1160 0 0 175 0 175 175 0 175 0 0 165 0 165 160
0 160 0 0 325 0 325 165 0 165 0 0 175 0 175 165 0 165 0 0 830 0 830 -165 0
-165 0 0 330 0 330 -165 0 -165 0 0 175 0 175 -160 0 -160 0 0 160 0 160 -340
0 -340 0 0 165 0 165 -830 0 -830 0 0 -165z"/>
</g>
</svg>
